<?xml version="1.0" standalone="no"?><!DOCTYPE svg PUBLIC "-//W3C//DTD SVG 1.1//EN" "http://www.w3.org/Graphics/SVG/1.1/DTD/svg11.dtd"><svg t="1660213701034" class="icon" viewBox="0 0 1024 1024" version="1.1" xmlns="http://www.w3.org/2000/svg" p-id="8073" xmlns:xlink="http://www.w3.org/1999/xlink" width="200" height="200"><defs><style type="text/css">@font-face { font-family: feedback-iconfont; src: url("//at.alicdn.com/t/font_1031158_u69w8yhxdu.woff2?t=1630033759944") format("woff2"), url("//at.alicdn.com/t/font_1031158_u69w8yhxdu.woff?t=1630033759944") format("woff"), url("//at.alicdn.com/t/font_1031158_u69w8yhxdu.ttf?t=1630033759944") format("truetype"); }
</style></defs><path d="M800.129365 127.663111H223.872266A95.960105 95.960105 0 0 0 128.195856 224.190608v31.703006h767.609919v-32.199474A95.889181 95.889181 0 0 0 800.129365 127.663111zM632.252374 63.831556l14.18479 100.782934H377.422619L391.749257 63.831556z m7.659787-63.831556H384.160395a56.739161 56.739161 0 0 0-54.75329 47.589971l-19.007619 134.117191a40.781272 40.781272 0 0 0 33.405181 47.022579 44.327469 44.327469 0 0 0 8.08533 0.567392h319.867018a40.852196 40.852196 0 0 0 41.986978-39.504641 43.901925 43.901925 0 0 0-0.567391-8.08533L694.168983 47.589971A55.888073 55.888073 0 0 0 639.912161 0zM816.158178 319.796094H208.056225a57.661172 57.661172 0 0 0-58.725031 56.73916 52.341876 52.341876 0 0 0 0 7.092395l52.200027 576.186176a72.058734 72.058734 0 0 0 69.576396 63.831555h480.438842a70.923951 70.923951 0 0 0 69.576396-63.831555l52.696495-576.186176a57.09378 57.09378 0 0 0-49.646765-63.831555 53.334811 53.334811 0 0 0-8.014407 0z m-431.92686 575.760631H287.916593l-31.703006-447.7429h127.663112v447.7429z m191.920211 0h-127.663111V447.813825h127.663111v447.7429z m160.146281 0H639.912161V447.813825h127.663111l-31.703006 447.7429z" fill="#707070" p-id="8074"></path></svg>