<?xml version="1.0" standalone="no"?><!DOCTYPE svg PUBLIC "-//W3C//DTD SVG 1.1//EN" "http://www.w3.org/Graphics/SVG/1.1/DTD/svg11.dtd"><svg t="1658472714293" class="icon" viewBox="0 0 1024 1024" version="1.1" xmlns="http://www.w3.org/2000/svg" p-id="6749" xmlns:xlink="http://www.w3.org/1999/xlink" width="200" height="200"><defs><style type="text/css">@font-face { font-family: feedback-iconfont; src: url("//at.alicdn.com/t/font_1031158_u69w8yhxdu.woff2?t=1630033759944") format("woff2"), url("//at.alicdn.com/t/font_1031158_u69w8yhxdu.woff?t=1630033759944") format("woff"), url("//at.alicdn.com/t/font_1031158_u69w8yhxdu.ttf?t=1630033759944") format("truetype"); }
</style></defs><path d="M512 64C264.533333 64 64 264.533333 64 512s200.533333 448 448 448 448-200.533333 448-448S759.466667 64 512 64z m150.826667 538.453333c16.64 16.64 16.64 43.733333 0 60.373334-16.64 16.64-43.733333 16.64-60.373334 0L512 572.373333l-90.453333 90.453334c-16.64 16.64-43.733333 16.64-60.373334 0-16.64-16.64-16.64-43.733333 0-60.373334L451.626667 512l-90.453334-90.453333c-16.64-16.64-16.64-43.733333 0-60.373334 16.64-16.64 43.733333-16.64 60.373334 0L512 451.626667l90.453333-90.453334c16.64-16.64 43.733333-16.64 60.373334 0 16.64 16.64 16.64 43.733333 0 60.373334L572.373333 512l90.453334 90.453333z" fill="#666666" p-id="6750"></path></svg>