<?xml version="1.0" standalone="no"?><!DOCTYPE svg PUBLIC "-//W3C//DTD SVG 1.1//EN" "http://www.w3.org/Graphics/SVG/1.1/DTD/svg11.dtd"><svg t="1658646252927" class="icon" viewBox="0 0 1024 1024" version="1.1" xmlns="http://www.w3.org/2000/svg" p-id="17311" xmlns:xlink="http://www.w3.org/1999/xlink" width="200" height="200"><defs><style type="text/css">@font-face { font-family: feedback-iconfont; src: url("//at.alicdn.com/t/font_1031158_u69w8yhxdu.woff2?t=1630033759944") format("woff2"), url("//at.alicdn.com/t/font_1031158_u69w8yhxdu.woff?t=1630033759944") format("woff"), url("//at.alicdn.com/t/font_1031158_u69w8yhxdu.ttf?t=1630033759944") format("truetype"); }
</style></defs><path d="M512 754.006c-12.796 0-25.588-4.88-35.353-14.642L92.573 355.352c-19.528-19.525-19.53-51.183-0.006-70.711 19.525-19.527 51.183-19.529 70.711-0.006l384.075 384.012c19.527 19.524 19.53 51.183 0.006 70.711-9.763 9.764-22.563 14.648-35.359 14.648z" p-id="17312"></path><path d="M512 754.006c-12.798 0-25.595-4.883-35.358-14.647-19.524-19.528-19.522-51.187 0.006-70.711l384.074-384.011c19.528-19.524 51.187-19.522 70.711 0.005s19.521 51.186-0.006 70.711L547.353 739.364c-9.763 9.761-22.558 14.642-35.353 14.642z" p-id="17313"></path></svg>