<?xml version="1.0" standalone="no"?><!DOCTYPE svg PUBLIC "-//W3C//DTD SVG 1.1//EN" "http://www.w3.org/Graphics/SVG/1.1/DTD/svg11.dtd"><svg t="1660294566969" class="icon" viewBox="0 0 1024 1024" version="1.1" xmlns="http://www.w3.org/2000/svg" p-id="6393" xmlns:xlink="http://www.w3.org/1999/xlink" width="200" height="200"><defs><style type="text/css">@font-face { font-family: feedback-iconfont; src: url("//at.alicdn.com/t/font_1031158_u69w8yhxdu.woff2?t=1630033759944") format("woff2"), url("//at.alicdn.com/t/font_1031158_u69w8yhxdu.woff?t=1630033759944") format("woff"), url("//at.alicdn.com/t/font_1031158_u69w8yhxdu.ttf?t=1630033759944") format("truetype"); }
</style></defs><path d="M512 0C228.864 0 0 229.376 0 512s229.376 512 512 512 512-229.376 512-512S794.624 0 512 0z m186.368 637.44c19.456 19.456 19.456 39.424 0 58.88s-39.424 19.456-58.88 0l-125.44-125.44-125.44 125.44c-19.456 19.456-39.424 19.456-58.88 0s-19.456-39.424 0-58.88L454.656 512 328.704 386.56c-19.456-19.456-19.456-39.424 0-58.88s39.424-19.456 58.88 0l125.44 125.44 125.44-125.44c19.456-19.456 39.424-19.456 58.88 0s19.456 39.424 0 58.88L572.928 512l125.44 125.44z" p-id="6394"></path></svg>