<?xml version="1.0" standalone="no"?><!DOCTYPE svg PUBLIC "-//W3C//DTD SVG 1.1//EN" "http://www.w3.org/Graphics/SVG/1.1/DTD/svg11.dtd"><svg t="1660758694444" class="icon" viewBox="0 0 1024 1024" version="1.1" xmlns="http://www.w3.org/2000/svg" p-id="25332" xmlns:xlink="http://www.w3.org/1999/xlink" width="200" height="200"><defs><style type="text/css">@font-face { font-family: feedback-iconfont; src: url("//at.alicdn.com/t/font_1031158_u69w8yhxdu.woff2?t=1630033759944") format("woff2"), url("//at.alicdn.com/t/font_1031158_u69w8yhxdu.woff?t=1630033759944") format("woff"), url("//at.alicdn.com/t/font_1031158_u69w8yhxdu.ttf?t=1630033759944") format("truetype"); }
</style></defs><path d="M512 0.02249C229.259773 0.02249 0 229.237284 0 512s229.237284 511.97751 512 511.97751c282.785206 0 512-229.214794 512-511.97751S794.785206 0.02249 512 0.02249z m0 153.087235a169.347272 169.347272 0 1 1 0.02249 338.694545 169.347272 169.347272 0 0 1-0.02249-338.694545z m-0.112448 737.009224a375.757533 375.757533 0 0 1-244.687693-90.228586 72.169375 72.169375 0 0 1-25.323377-54.852324c0-94.83897 76.75727-170.741632 171.61873-170.741632h197.054555c94.88395 0 171.348854 75.902662 171.348854 170.741632a71.966968 71.966968 0 0 1-25.300888 54.829834 375.622595 375.622595 0 0 1-244.710181 90.251076z" p-id="25333"></path></svg>