<?xml version="1.0" standalone="no"?><!DOCTYPE svg PUBLIC "-//W3C//DTD SVG 1.1//EN" "http://www.w3.org/Graphics/SVG/1.1/DTD/svg11.dtd"><svg t="1660593882742" class="icon" viewBox="0 0 1024 1024" version="1.1" xmlns="http://www.w3.org/2000/svg" p-id="5555" xmlns:xlink="http://www.w3.org/1999/xlink" width="200" height="200"><defs><style type="text/css">@font-face { font-family: feedback-iconfont; src: url("//at.alicdn.com/t/font_1031158_u69w8yhxdu.woff2?t=1630033759944") format("woff2"), url("//at.alicdn.com/t/font_1031158_u69w8yhxdu.woff?t=1630033759944") format("woff"), url("//at.alicdn.com/t/font_1031158_u69w8yhxdu.ttf?t=1630033759944") format("truetype"); }
</style></defs><path d="M897.167 445.717c-35.346 0-64 28.654-64 64 0 177.508-144.414 321.922-321.923 321.922-177.508 0-321.922-144.414-321.922-321.922s144.414-321.922 321.922-321.922c56.061 0 110.906 15.006 158.937 42.252l-94.301 79.954c-12.25 10.386-5.827 30.399 10.179 31.717l280.023 23.054c9.923 0.817 18.629-6.565 19.446-16.487l23.054-280.023c1.318-16.007-17.375-25.616-29.625-15.229l-106.631 90.408c-19.592-13.977-40.287-26.404-61.839-37.056-61.669-30.479-130.566-46.59-199.244-46.59-60.394 0-119.171 11.994-174.699 35.648-53.457 22.772-101.538 55.296-142.909 96.667-41.37 41.37-73.894 89.452-96.666 142.909-23.655 55.527-35.648 114.305-35.648 174.699s11.994 119.171 35.648 174.699c22.772 53.457 55.296 101.538 96.666 142.909 41.371 41.37 89.452 73.894 142.909 96.666 55.528 23.654 114.305 35.648 174.699 35.648 60.394 0 119.171-11.994 174.699-35.648 53.456-22.772 101.538-55.296 142.908-96.666 41.371-41.371 73.895-89.452 96.667-142.909 23.654-55.527 35.648-114.305 35.648-174.699 0.002-35.347-28.652-64.001-63.998-64.001z" p-id="5556"></path></svg>